{
  "accessors": [
    {
      "bufferView": 2,
      "componentType": 5126,
      "count": 640,
      "max": [
        2.811150074005127,
        12.260899543762207,
        3.6292901039123535
      ],
      "min": [
        -2.8057799339294434,
        -10.787460327148438,
        -1.3824599981307983
      ],
      "type": "VEC3"
    },
    {
      "bufferView": 2,
      "byteOffset": 7680,
      "componentType": 5126,
      "count": 640,
      "max": [
        1.0,
        0.999993622303009,
        1.0
      ],
      "min": [
        -1.0,
        -0.999993622303009,
        -0.9955039024353027
      ],
      "type": "VEC3"
    },
    {
      "bufferView": 0,
      "componentType": 5125,
      "count": 2196,
      "type": "SCALAR"
    },
    {
      "bufferView": 2,
      "byteOffset": 15360,
      "componentType": 5126,
      "count": 20,
      "max": [
        2.469710111618042,
        5.798150062561035,
        18.880529403686523
      ],
      "min": [
        -6.437389850616455,
        5.572579860687256,
        -0.2291799932718277
      ],
      "type": "VEC3"
    },
    {
      "bufferView": 2,
      "byteOffset": 15600,
      "componentType": 5126,
      "count": 20,
      "max": [
        0.6862553954124451,
        0.7924079298973083,
        0.6862553954124451
      ],
      "min": [
        -0.6862553954124451,
        -0.7924079298973083,
        -0.6099914908409119
      ],
      "type": "VEC3"
    },
    {
      "bufferView": 0,
      "byteOffset": 8784,
      "componentType": 5125,
      "count": 96,
      "type": "SCALAR"
    },
    {
      "bufferView": 2,
      "byteOffset": 15840,
      "componentType": 5126,
      "count": 24,
      "max": [
        0.9688500165939331,
        1.3705500364303589,
        -0.028999999165534973
      ],
      "min": [
        -1.031149983406067,
        1.339460015296936,
        -4.462279796600342
      ],
      "type": "VEC3"
    },
    {
      "bufferView": 2,
      "byteOffset": 16128,
      "componentType": 5126,
      "count": 24,
      "max": [
        1.0,
        0.9999879598617554,
        1.0
      ],
      "min": [
        -1.0,
        -0.9999879598617554,
        -1.0
      ],
      "type": "VEC3"
    },
    {
      "bufferView": 1,
      "componentType": 5126,
      "count": 24,
      "max": [
        1.01364004611969,
        0.9999300241470337
      ],
      "min": [
        0.0,
        0.0
      ],
      "type": "VEC2"
    },
    {
      "bufferView": 0,
      "byteOffset": 9168,
      "componentType": 5125,
      "count": 36,
      "type": "SCALAR"
    }
  ],
  "asset": {
    "extras": {
      "author": "Kevin (https://sketchfab.com/koskow)",
      "license": "CC-BY-SA-4.0 (http://creativecommons.org/licenses/by-sa/4.0/)",
      "source": "https://sketchfab.com/3d-models/pop-up-banner-stand-b6407a9bd61a4ba79199ca516bad621f",
      "title": "Pop-up-banner-stand"
    },
    "generator": "Sketchfab-12.65.0",
    "version": "2.0"
  },
  "bufferViews": [
    {
      "buffer": 0,
      "byteLength": 9312,
      "name": "floatBufferViews",
      "target": 34963
    },
    {
      "buffer": 0,
      "byteLength": 192,
      "byteOffset": 9312,
      "byteStride": 8,
      "name": "floatBufferViews",
      "target": 34962
    },
    {
      "buffer": 0,
      "byteLength": 16416,
      "byteOffset": 9504,
      "byteStride": 12,
      "name": "floatBufferViews",
      "target": 34962
    }
  ],
  "buffers": [
    {
      "byteLength": 25920,
      "uri": "scene.bin"
    }
  ],
  "extensionsRequired": [
    "KHR_materials_pbrSpecularGlossiness"
  ],
  "extensionsUsed": [
    "KHR_materials_pbrSpecularGlossiness"
  ],
  "materials": [
    {
      "doubleSided": true,
      "extensions": {
        "KHR_materials_pbrSpecularGlossiness": {
          "diffuseFactor": [
            1.0,
            1.0,
            1.0,
            1.0
          ],
          "glossinessFactor": 0.4,
          "specularFactor": [
            0.05,
            0.05,
            0.05
          ]
        }
      },
      "name": "Root"
    },
    {
      "doubleSided": true,
      "extensions": {
        "KHR_materials_pbrSpecularGlossiness": {
          "diffuseFactor": [
            1.0,
            1.0,
            1.0,
            1.0
          ],
          "glossinessFactor": 1.0,
          "specularFactor": [
            1.0,
            1.0,
            1.0
          ]
        }
      },
      "name": "Material"
    }
  ],
  "meshes": [
    {
      "name": "Base_0",
      "primitives": [
        {
          "attributes": {
            "NORMAL": 1,
            "POSITION": 0
          },
          "indices": 2,
          "material": 0,
          "mode": 4
        }
      ]
    },
    {
      "name": "Posts_0",
      "primitives": [
        {
          "attributes": {
            "NORMAL": 4,
            "POSITION": 3
          },
          "indices": 5,
          "material": 0,
          "mode": 4
        }
      ]
    },
    {
      "name": "Banner_0",
      "primitives": [
        {
          "attributes": {
            "NORMAL": 7,
            "POSITION": 6,
            "TEXCOORD_0": 8
          },
          "indices": 9,
          "material": 1,
          "mode": 4
        }
      ]
    }
  ],
  "nodes": [
    {
      "children": [
        1
      ],
      "matrix": [
        1.0,
        0.0,
        0.0,
        0.0,
        0.0,
        2.220446049250313e-16,
        -1.0,
        0.0,
        0.0,
        1.0,
        2.220446049250313e-16,
        0.0,
        0.0,
        0.0,
        0.0,
        1.0
      ],
      "name": "Sketchfab_model"
    },
    {
      "children": [
        2,
        4,
        6,
        8
      ],
      "name": "Root"
    },
    {
      "children": [
        3
      ],
      "matrix": [
        -0.9993099999999999,
        -0.035030000000000006,
        -0.012670000000000002,
        0.0,
        0.037200000000000004,
        -0.9568300000000001,
        -0.28825,
        0.0,
        -0.0020200000000000005,
        -0.28852000000000005,
        0.95747,
        0.0,
        -0.03771000000000001,
        -8.28506,
        35.887989999999995,
        1.0
      ],
      "name": "Lamp"
    },
    {
      "name": "Lamp"
    },
    {
      "children": [
        5
      ],
      "matrix": [
        1.72002,
        0.0,
        0.0,
        0.0,
        0.0,
        0.12403000000000002,
        0.0,
        0.0,
        0.0,
        0.0,
        0.08615000000000002,
        0.0,
        0.0,
        0.0,
        0.0,
        1.0
      ],
      "name": "Base"
    },
    {
      "mesh": 0,
      "name": "Base_0"
    },
    {
      "children": [
        7
      ],
      "matrix": [
        1.0,
        0.0,
        0.0,
        0.0,
        0.0,
        1.0,
        0.0,
        0.0,
        0.0,
        0.0,
        1.0,
        0.0,
        1.99701,
        -5.50675,
        0.26831000000000005,
        1.0
      ],
      "name": "Posts"
    },
    {
      "mesh": 1,
      "name": "Posts_0"
    },
    {
      "children": [
        9
      ],
      "matrix": [
        4.24047,
        0.0,
        0.0,
        0.0,
        0.0,
        4.24047,
        0.0,
        0.0,
        0.0,
        0.0,
        4.24047,
        0.0,
        0.12288,
        -5.71346,
        19.214960000000005,
        1.0
      ],
      "name": "Banner"
    },
    {
      "mesh": 2,
      "name": "Banner_0"
    }
  ],
  "scene": 0,
  "scenes": [
    {
      "name": "Sketchfab_Scene",
      "nodes": [
        0
      ]
    }
  ]
}
